<?xml version="1.0" encoding="UTF-8" standalone="no"?><!DOCTYPE svg PUBLIC "-//W3C//DTD SVG 1.1//EN" "http://www.w3.org/Graphics/SVG/1.1/DTD/svg11.dtd"><svg width="100%" height="100%" viewBox="0 0 1025 800" version="1.1" xmlns="http://www.w3.org/2000/svg" xmlns:xlink="http://www.w3.org/1999/xlink" xml:space="preserve" xmlns:serif="http://www.serif.com/" style="fill-rule:evenodd;clip-rule:evenodd;stroke-linecap:round;stroke-linejoin:round;"><g><g><path d="M350.989,242.297l-26.989,-5.311l-23,33.014l-29,29l43,37l88,46l105.5,58l98.5,46l98,-62.094l89,-51.906l42,-74l-12,-118l-27.415,7.965c0,0 23.278,35.428 20.332,65.035c-2.958,29.714 -19.329,54.412 -39.917,75c-38.797,38.797 -96.502,59.852 -150,67.778c-74.468,11.032 -158.956,4.029 -223,-39.111c-30.845,-20.778 -57,-53.88 -57,-92.667c0,-8.614 3.989,-21.703 3.989,-21.703Z" style="fill:#fff;fill-rule:nonzero;stroke:#000;stroke-opacity:0;stroke-width:2.5px;"/><path d="M66.028,340.691l-11.028,32.309l14.79,25.11l81.939,48.173l66.417,35.897l125.304,74.438l71.336,37.058l18.022,3.446l111.51,-82.221l6.096,7.731l4.695,57.527l-124.473,69.046l-81.35,-26.962l-125.05,-63.66l-183.863,-104.246l14.626,-81.336" style="fill:#fff;stroke:#000;stroke-opacity:0;stroke-width:1px;stroke-miterlimit:1.5;"/></g><g><path d="M796.869,187.965c13.813,18.818 22.366,41.744 20.048,65.035c-2.958,29.714 -19.329,54.412 -39.917,75c-38.797,38.797 -96.502,59.852 -150,67.778c-74.468,11.032 -158.956,4.029 -223,-39.111c-30.845,-20.778 -57,-53.88 -57,-92.667c0,-7.14 1.182,-14.58 2.805,-21.664" style="fill:none;fill-rule:nonzero;stroke:#000;stroke-width:2.5px;"/><path d="M178,261c12.236,4.833 23.503,13.336 35,19.75c24.885,13.882 49.36,28.545 74,42.861c70.888,41.188 142.04,81.935 213,123c25.986,15.038 51.78,30.512 78,45.139c11.561,6.45 25.631,11.746 30,25.25" style="fill:none;fill-rule:nonzero;stroke:#000;stroke-width:2.5px;"/><path d="M216,481.167l-8,-4.167l-18,-11" style="fill:none;fill-rule:nonzero;stroke:#000;stroke-width:2.5px;"/><path d="M125,427.889c-2.487,0.242 -4.984,-1.704 -7,-2.889c-4.413,-2.595 -8.752,-5.469 -13.222,-7.944c-7.283,-4.034 -14.628,-7.964 -21.778,-12.25c-2.481,-1.488 -6.71,-3.058 -7.889,-5.889" style="fill:none;fill-rule:nonzero;stroke:#000;stroke-width:2.5px;"/><path d="M551.917,506c-0.605,4.746 -4.527,8.843 -7.917,11.917c-7.958,7.214 -17.415,13.005 -26,19.444c-21.78,16.335 -43.423,33.58 -66,48.945c-8.385,5.706 -15.983,11.787 -24,17.833c-4.52,3.408 -9.829,6.115 -13,10.861l15,7.583l12,-0.861l9,11.278" style="fill:none;fill-rule:nonzero;stroke:#000;stroke-width:2.5px;"/><path d="M73,399c-9.163,-7.054 -11.716,-24.965 -1,-32" style="fill:none;fill-rule:nonzero;stroke:#000;stroke-width:2.5px;"/><path d="M69,397l-15,9.167l-7,2.583l-7.611,-6.75l-4.167,-7l7.778,-7.361l24,-16.639" style="fill:none;fill-rule:nonzero;stroke:#000;stroke-width:2.5px;"/><path d="M21,388l12,7c-9.011,9.704 4.295,17.014 12,21.972c20.964,13.491 43.436,25.11 65,37.639c63.886,37.119 128.114,73.659 192,110.778c20.637,11.99 41.158,24.234 62,35.861c9.772,5.451 20.07,14.086 31,16.75c1.566,-8.424 12.779,-1.229 19,-4" style="fill:none;fill-rule:nonzero;stroke:#000;stroke-width:2.5px;"/><path d="M47,409l-5,3" style="fill:none;fill-rule:nonzero;stroke:#000;stroke-width:2.5px;"/><path d="M34,416l89,51.389l180,104.222l94,54.389" style="fill:none;fill-rule:nonzero;stroke:#000;stroke-width:2.5px;"/><path d="M126,429l11,7" style="fill:none;fill-rule:nonzero;stroke:#000;stroke-width:2.5px;"/><path d="M161,449l28,17" style="fill:none;fill-rule:nonzero;stroke:#000;stroke-width:2.5px;"/><path d="M261,507.194l-11,-6.111l-32,-19.083" style="fill:none;fill-rule:nonzero;stroke:#000;stroke-width:2.5px;"/><path d="M343.833,553.056c-1.093,2.97 4.245,5.016 6.167,6.111c5.35,3.046 10.711,6.063 16,9.222c2.228,1.33 5.268,3.843 8,3.805" style="fill:none;fill-rule:nonzero;stroke:#000;stroke-width:2.5px;"/><path d="M387,580l30,18l-17,14" style="fill:none;fill-rule:nonzero;stroke:#000;stroke-width:2.5px;"/><path d="M263,508c5.289,4.645 11.972,7.581 18,11.194c12.552,7.526 25.448,14.475 38,22c6.303,3.779 15.75,11.593 23,11.806" style="fill:none;fill-rule:nonzero;stroke:#000;stroke-width:2.5px;"/><path d="M589,509l-141,105" style="fill:none;fill-rule:nonzero;stroke:#000;stroke-width:2.5px;"/><path d="M459,630l23,-17.361l49,-36.5l49,-36.528l20,-14.611" style="fill:none;fill-rule:nonzero;stroke:#000;stroke-width:2.5px;"/><path d="M375,573l11,7" style="fill:none;fill-rule:nonzero;stroke:#000;stroke-width:2.5px;"/><path d="M417,598l17,0" style="fill:none;fill-rule:nonzero;stroke:#000;stroke-width:2.5px;"/><path d="M412,616c-5.434,5.137 -10.682,6.672 -17,2" style="fill:none;fill-rule:nonzero;stroke:#000;stroke-width:2.5px;"/><path d="M425,621c-3.908,4.133 -6.376,8.287 -7,14" style="fill:none;fill-rule:nonzero;stroke:#000;stroke-width:2.5px;"/><path d="M419,639c11.14,2.106 19.261,2.016 30,-2" style="fill:none;fill-rule:nonzero;stroke:#000;stroke-width:2.5px;"/></g></g></svg>