<?xml version="1.0" standalone="yes"?>
<svg xmlns="http://www.w3.org/2000/svg" viewBox="0 0 512 363">
<path style="stroke:#000;stroke-width:3;fill:none;stroke-linecap:round;stroke-linejoin:round;" d="M34 157L179 240.806L210 258.75L221.417 266.083L219 274L169 245.389L74 190.611L29 165L33 157C29.5941 153.594 25.5548 150.314 23.2778 146C11.766 124.188 46.0989 111.434 60 103.389C95.6457 82.7607 131.391 62.3007 167 41.6111C188.036 29.389 209.792 13.1269 233 5.44446C263.892 -4.78146 288.844 10.1581 315 24.75C353.943 46.4754 392.753 68.8748 431 91.8055C449.588 102.949 473.512 111.955 488 128C492.621 124.505 496.053 127.533 500 131.083C506.253 136.708 510.775 144.375 509.917 153C509.248 159.719 505.825 165.291 500.972 169.917C497.966 172.782 492.761 174.866 491.333 179C489.503 184.302 491 192.407 491 198L491 241C499.14 238.435 506.836 230.206 509.306 222C511.138 215.909 510 208.314 510 202L510 162M237 54.3889C249.631 52.313 264.366 53.6591 277 54.9167C310.881 58.2891 345.202 66.6323 373 87.4167C397.18 105.496 411.056 135.622 395.75 164C391.147 172.534 384.233 179.622 377 185.917C367.558 194.135 356.302 200.518 345 205.75C328.38 213.444 310.064 218.102 292 220.778C241.707 228.229 183.241 221.618 141 191.306C133.831 186.161 127.44 180.046 122.139 173C118.182 167.74 114.875 162.234 112.667 156C98.5612 116.173 134.526 84.4915 168 70.3889C190.536 60.8945 213.259 58.2907 237 54.3889M25 126L23 124L27 123M485 123L486 126M4 161L13 171.917L19.8889 178.083L20 197L20 241C12.0905 238.508 5.01466 229.892 2.69444 222C0.398521 214.19 2 204.103 2 196C2 184.335 2.22222 172.655 2.22222 161C2.22222 156.092 1.29571 150.843 2.41667 146C4.11363 138.669 14.8299 121.821 23 128M24 125L21 127M487 125L490 127M18 127C20.0394 132.393 13.9727 140.463 14.3056 147C14.7122 154.984 23.6442 160.207 29 165M20 128L23 131M493 127L491 130M488 129L489 130M492 130C496.413 135.251 499.765 145.562 495.667 152C491.067 159.226 481.731 161.852 482 171C487.047 169.24 498.658 160.874 494 155M490 131C490.579 136.507 491.473 140.788 488.722 146C485.577 151.959 477.496 153.873 481 161L482 162L482 163M15 154C16.9587 162.037 22.4654 166.74 29 171.278C40.0918 178.98 52.253 185.477 64 192.167C97.7626 211.393 131.406 230.87 165 250.389C176.992 257.356 188.89 264.494 201 271.25C206.88 274.53 212.561 278.998 219 281L220 275C237.508 281.841 254.077 285.422 273 281.611C280.948 280.01 296.475 276.697 288 267L348 231.611L477 157M497 154L497 155M30 166L30 169M293 274L423 198.75L463 175.611L481 166M482 171L443 194.389L360 242.389L315 268.389L292 281L292 276M22 178C36.945 188.11 53.4009 196.326 69 205.389C98.9582 222.795 129.044 239.984 159 257.389C179.486 269.292 200.564 285.182 223 292.972C243.14 299.965 265.694 299.487 286 293.611C305.116 288.08 322.912 274.317 340 264.389C373.928 244.676 408.072 225.324 442 205.611L473 187.611C478.674 184.327 484.644 179.629 491 178M20 241L64 267.389L164 325.25L198 345L209.667 350.194L211 335L211 288M491 241L454 263.389L364 315.389L326 337.389L301 351L301 289M223 267L246 273.917L276 271.611L288 267M219 281C237.303 294.842 273.697 294.842 292 281M210 351C228.336 364.867 257.536 365.379 279 360.361C286.553 358.595 295.106 356.151 301 351"/>
</svg>
