<?xml version="1.0" encoding="UTF-8"?>
<svg xmlns="http://www.w3.org/2000/svg" width="1396" height="1118" viewBox="0 0 1396 1118">
 <g fill="none" stroke="#000" stroke-width="2.5" stroke-linecap="round" stroke-linejoin="round">
  <path d="M647 296C652.486 291.943 661.038 291.693 667 295C660.006 299.32 649.251 293.343 642 297.472C627.479 305.741 614.027 316.242 600 325.333C557.799 352.686 516.204 380.979 474 408.333C430.79 436.34 388.213 465.325 345 493.333C300.965 521.875 257.121 550.563 215 581.861C180.807 607.269 146.8 633.125 112 657.694C103.328 663.817 82.8497 675.125 89.7222 689C90.6917 690.957 92.5014 692.469 94 694C99.1514 687.073 105.195 675.184 101 667"/>
  <path d="M667 295C673.707 295.845 680.199 301.254 686 304.611C699.321 312.32 712.558 320.251 726 327.75C773.728 354.376 820.271 383.124 868 409.75C917.424 437.322 965.576 467.177 1015 494.75C1030.13 503.189 1044.87 512.311 1060 520.75C1066.41 524.324 1076.05 528.074 1080.53 534.028C1083.6 538.116 1083.56 542.247 1084.39 547C1086.12 556.985 1087.74 566.975 1089.22 577C1092.68 600.365 1096.76 623.637 1100.22 647C1101.81 657.689 1106.12 670.197 1104.92 681C1104.41 685.56 1100.78 688.611 1100 693C1099.11 697.965 1100.69 703.09 1100.97 708C1101.5 717.199 1100.89 726.907 1102.39 736C1103.36 741.936 1105.38 753.979 1101.53 758.917C1099.39 761.665 1095.92 763.242 1093 765C1085.54 769.493 1078.13 773.283 1070 776.389C1047.91 784.826 1025.8 793.204 1004 802.389C931.893 832.767 862.559 870.252 796 911.389C734.933 949.131 676.583 991.249 620 1035.39C601.526 1049.8 581.212 1060.65 561 1072.39C550.58 1078.44 539.454 1087.99 527 1088.92C513.083 1089.95 498.802 1078.08 488 1071.03C467.145 1057.41 444.562 1045.87 423 1033.39C344.022 987.684 264.899 942.231 186 896.389C164.788 884.064 143.753 870.746 122 859.417C112.308 854.369 100.699 850.845 94.5 841C90.7151 834.989 94.2393 826.318 91.5833 820.056C90.1619 816.704 86.4492 815.929 85.4167 812C82.6994 801.66 85.9034 789.435 86 779C86.2753 749.272 88 719.744 88 690"/>
  <path d="M684 309L756 350.611L948 461.389L1046 518"/>
  <path d="M282 540L523 381.333L606 326.611L630 311"/>
  <path d="M671 400.389C677.384 399.34 683.67 400.287 690 400.917C700.305 401.942 710.674 401.793 721 402.917C770.43 408.294 819.448 424.651 858 456.778C883.019 477.627 902.258 510.433 898.917 544C895.959 573.714 879.588 598.412 859 619C820.203 657.797 762.498 678.852 709 686.778C634.532 697.81 550.044 690.807 486 647.667C455.155 626.889 429 593.787 429 555C429 546.386 430.72 537.335 432.861 529C435.184 519.96 439.62 510.985 444.389 503C479.478 444.247 552.918 416.663 617 405.389C628.562 403.355 640.355 402.242 652 401.083C658.343 400.452 664.679 401.428 671 400.389"/>
  <path d="M445 606C450.864 598.289 455.266 589.601 461.389 582C469.755 571.615 479.496 562.583 490 554.389C512.033 537.201 537.078 525.512 563 515.611C622.125 493.029 691.314 489.188 753 501.611C785.306 508.117 817.244 518.909 845 537.028C856.992 544.856 868.332 554.355 877.917 565C881.913 569.438 885.041 574.555 889 579"/>
  <path d="M1071 527C1064.5 535.596 1073.31 546.254 1078 554L1084 547"/>
  <path d="M260 552C272.236 556.833 283.503 565.336 295 571.75C319.885 585.632 344.36 600.295 369 614.611C439.888 655.799 511.04 696.546 582 737.611C607.986 752.649 633.78 768.123 660 782.75C671.561 789.2 685.631 794.496 690 808"/>
  <path d="M699 781L756 743.333L879 662.333L1003 580.611L1047 552"/>
  <path d="M254 559L148 637.139L112 664"/>
  <path d="M1078 561L1092.22 652L1097 683"/>
  <path d="M1057 568L891 677.333L709 797"/>
  <path d="M349 739L311 764.389L298 772.167L290 768L272 757C283.515 747.856 298.89 741.424 312 734.778C316.406 732.544 323.057 726.796 328 726.556C338.05 726.067 346.969 745.129 356.889 733.917C359.48 730.988 357.752 729.19 355 727.389C350.163 724.223 344.963 721.575 340 718.611C326.798 710.726 313.295 703.336 300 695.611C291.546 690.699 283.089 684.59 274 681L274 694L268 694L267 681C261.21 682.825 256.047 687.302 251 690.667C241.715 696.856 232.288 702.829 223 709C218.776 711.806 212.129 718.39 207 718.889C204.513 719.131 202.016 717.185 200 716C195.587 713.405 191.248 710.531 186.778 708.056C179.495 704.022 172.15 700.092 165 695.806C162.519 694.318 158.29 692.748 157.111 689.917C154.879 684.557 156.476 677.621 155.917 672C155.494 667.752 153.33 661.018 155.556 657.028C157.08 654.295 160.561 652.468 163 650.639C168.999 646.14 174.947 641.566 181 637.139C197.062 625.39 213.061 613.556 229 601.639C237.267 595.458 245.931 587.302 256 584.389C272.908 579.496 284.757 586.804 299 594.75C313.458 602.816 327.684 611.293 342 619.611C411.876 660.21 481.774 700.844 552 740.833C573.413 753.027 594.587 765.64 616 777.833C623.258 781.966 635.231 786.677 633.917 797C633.312 801.746 629.39 805.843 626 808.917C618.042 816.131 608.585 821.922 600 828.361C578.22 844.696 556.577 861.941 534 877.306C525.615 883.012 518.017 889.093 510 895.139C505.48 898.547 500.171 901.254 497 906L512 913.583L524 912.722L533 924"/>
  <path d="M285 590L289 660"/>
  <path d="M246 594L250 663"/>
  <path d="M663 621.389C675.67 619.189 692.917 621.258 700.5 633C709.299 646.624 688.422 657.512 678 659.611C666.436 661.94 650.871 661.012 642.083 651.917C640.064 649.827 639.413 647.775 638.944 645C636.574 630.972 650.761 623.514 663 621.389"/>
  <path d="M652 634C653.534 631.652 660.671 629.386 664 628.639C678.997 625.271 691.512 630.982 702 641"/>
  <path d="M653 632L655 631"/>
  <path d="M686 631L686 645L698 640"/>
  <path d="M651 635L651 633"/>
  <path d="M648 636L647 638L649 634"/>
  <path d="M651 635L649 637"/>
  <path d="M639 643L645 638"/>
  <path d="M686 645L662 660"/>
  <path d="M155 690C145.837 682.946 143.284 665.035 154 658"/>
  <path d="M189 707C205.616 698.273 221.361 686.093 237 675.667C247.218 668.855 257.204 661.355 270 661C284.084 660.609 294.208 668.172 306 674.75C324.495 685.068 342.687 695.971 361 706.611C412.264 736.396 463.735 765.825 515 795.611L560 821.611C568.619 826.599 578.057 830.993 586 837"/>
  <path d="M151 688L136 697.167L129 699.75L121.389 693L117.222 686L125 678.639L149 662"/>
  <path d="M103 679L115 686C105.989 695.704 119.295 703.014 127 707.972C147.964 721.463 170.436 733.082 192 745.611C255.886 782.73 320.114 819.27 384 856.389C404.637 868.379 425.158 880.623 446 892.25C455.772 897.701 466.07 906.336 477 909C478.566 900.576 489.779 907.771 496 905"/>
  <path d="M267 681C270.042 679.134 270.958 679.134 274 681"/>
  <path d="M98 843L98 825C109.132 832.53 121.38 838.637 133 845.389C162.959 862.796 193.043 879.984 223 897.389C293.924 938.597 365.006 979.527 436 1020.61C451.976 1029.86 467.881 1039.26 484 1048.25C490.304 1051.77 497.049 1057.61 504 1059.64C506.001 1060.22 507.977 1059.53 510 1059.81C517.23 1060.79 522.632 1062.17 530 1060.94C534.445 1060.2 538.389 1056.53 542 1060L576 1037.33L654 986L898 825.333L1041 731L1087 700.667L1095.94 694.583L1101 689"/>
  <path d="M1097 690L1064 712L988 762L704 949.333L593 1022.33L541 1057"/>
  <path d="M268 694L220 727L235 736.25L242 739.444L256 730.861L280 714.333L292 705L274 694"/>
  <path d="M1094 699L1098 757"/>
  <path d="M129 700L124 703"/>
  <path d="M95 702L92 812"/>
  <path d="M292 706L307 713.611L327 726"/>
  <path d="M116 707L205 758.389L385 862.611L479 917"/>
  <path d="M208 720L219 727"/>
  <path d="M243 740L271 757"/>
  <path d="M392 765C392 759.031 389.895 747.988 399 753L397.667 764.667L387 770.333L357 790.333L343 798.194L332 792.083L300 773"/>
  <path d="M332 792L370 766.611L391 753"/>
  <path d="M400 753C419.378 766.109 440.749 776.892 461 788.611C466.326 791.693 471.72 794.64 477 797.806C478.741 798.849 482.385 800.209 483.167 802.25C484.745 806.37 473.598 811.307 470.917 813.306C460.407 821.14 448.903 827.731 438 835C434.847 837.102 427.196 840.352 425.833 844.056C424.74 847.026 430.078 849.072 432 850.167C437.35 853.213 442.711 856.23 448 859.389C450.228 860.719 453.268 863.232 456 863.194C460.82 863.128 468.964 855.681 473 853C486.919 843.753 501.717 835.102 515 825C516.817 828.276 518.674 835.243 516.444 838.778C513.927 842.77 506.887 845.742 503 848.333C491.728 855.848 479.611 862.574 469 871L499 889L482 903"/>
  <path d="M398 765L421 779.389L473 810"/>
  <path d="M626 784L627 806"/>
  <path d="M345 799C350.289 803.645 356.972 806.581 363 810.194C375.552 817.72 388.448 824.669 401 832.194C407.303 835.973 416.75 843.787 424 844"/>
  <path d="M671 800L530 905"/>
  <path d="M541 921L564 903.639L613 867.139L662 830.611L682 816"/>
  <path d="M89 819L90 820"/>
  <path d="M92 819L108 827.611L134 842.611L217 890.611L409 1001.39L507 1058"/>
  <path d="M93 822L97 825"/>
  <path d="M516 825C521.358 821.69 526.124 826.133 531 829C543.22 836.185 556.709 842.413 568 851"/>
  <path d="M523 826L524.556 838.75L534 844.806L557 858"/>
  <path d="M518 838L523 838"/>
  <path d="M457 864L468 871"/>
  <path d="M499 889L516 889"/>
  <path d="M494 907C488.566 912.137 483.318 913.672 477 909"/>
  <path d="M507 912C503.092 916.133 500.624 920.287 500 926"/>
  <path d="M501 930C512.14 932.106 520.261 932.016 531 928"/>
  <path d="M534 934L537.972 1001L539.917 1033L541 1049"/>
  <path d="M500 935L503.972 1001L505.917 1034L507 1050"/>
  <path d="M507 1061C516.08 1068.02 531.874 1066.06 541 1060"/>
  <path d="M538 1064L539 1085"/>
  <path d="M512 1065L513 1085"/>
 </g>
</svg>
